<?xml version="1.0" encoding="UTF-8" standalone="no"?>
<!DOCTYPE svg PUBLIC "-//W3C//DTD SVG 1.1//EN"
 "http://www.w3.org/Graphics/SVG/1.1/DTD/svg11.dtd">
<!-- Generated by graphviz version 2.38.0 (20140413.2041)
 -->
<!-- Title: G Pages: 1 -->
<svg width="694pt" height="401pt"
 viewBox="0.00 0.00 694.08 401.00" xmlns="http://www.w3.org/2000/svg" xmlns:xlink="http://www.w3.org/1999/xlink">
<g id="graph0" class="graph" transform="scale(1 1) rotate(0) translate(4 397)">
<title>G</title>
<polygon fill="white" stroke="none" points="-4,4 -4,-397 690.075,-397 690.075,4 -4,4"/>
<g id="clust1" class="cluster"><title>cluster_Global</title>
<path fill="none" stroke="gray" d="M20,-44C20,-44 666.075,-44 666.075,-44 672.075,-44 678.075,-50 678.075,-56 678.075,-56 678.075,-373 678.075,-373 678.075,-379 672.075,-385 666.075,-385 666.075,-385 20,-385 20,-385 14,-385 8,-379 8,-373 8,-373 8,-56 8,-56 8,-50 14,-44 20,-44"/>
<text text-anchor="middle" x="343.038" y="-372.2" font-family="Times,serif" font-size="11.00" fill="gray">Global</text>
</g>
<!-- \\Services_XIO -->
<g id="node1" class="node"><title>\\Services_XIO</title>
<polygon fill="none" stroke="black" points="623.974,-358 528.548,-358 528.548,-322 623.974,-322 623.974,-358"/>
<text text-anchor="middle" x="576.261" y="-336.7" font-family="Courier,monospace" font-size="11.00">Services_XIO</text>
</g>
<!-- \\Services_XIO_Base -->
<g id="node4" class="node"><title>\\Services_XIO_Base</title>
<polygon fill="none" stroke="black" points="394.054,-331 265.617,-331 265.617,-295 394.054,-295 394.054,-331"/>
<text text-anchor="start" x="296.83" y="-315.2" font-family="Courier,monospace" font-size="11.00">«abstract»</text>
<text text-anchor="start" x="273.726" y="-304.2" font-family="Courier,monospace" font-size="11.00">Services_XIO_Base</text>
</g>
<!-- \\Services_XIO&#45;&gt;\\Services_XIO_Base -->
<g id="edge1" class="edge"><title>\\Services_XIO&#45;&gt;\\Services_XIO_Base</title>
<path fill="none" stroke="black" d="M528.423,-334.826C493.281,-330.944 444.497,-325.555 404.196,-321.104"/>
<polygon fill="none" stroke="black" points="404.471,-317.613 394.147,-319.994 403.702,-324.57 404.471,-317.613"/>
</g>
<!-- \\Services_XIO_HttpException -->
<g id="node2" class="node"><title>\\Services_XIO_HttpException</title>
<polygon fill="none" stroke="black" points="669.89,-196 482.633,-196 482.633,-160 669.89,-160 669.89,-196"/>
<text text-anchor="middle" x="576.261" y="-174.7" font-family="Courier,monospace" font-size="11.00">Services_XIO_HttpException</text>
</g>
<!-- \\Services_XIO_Exception -->
<g id="node8" class="node"><title>\\Services_XIO_Exception</title>
<polygon fill="none" stroke="black" points="410.559,-169 249.112,-169 249.112,-133 410.559,-133 410.559,-169"/>
<text text-anchor="middle" x="329.835" y="-147.7" font-family="Courier,monospace" font-size="11.00">Services_XIO_Exception</text>
</g>
<!-- \\Services_XIO_HttpException&#45;&gt;\\Services_XIO_Exception -->
<g id="edge2" class="edge"><title>\\Services_XIO_HttpException&#45;&gt;\\Services_XIO_Exception</title>
<path fill="none" stroke="black" d="M482.506,-167.754C462.288,-165.521 440.926,-163.161 420.818,-160.94"/>
<polygon fill="none" stroke="black" points="421.069,-157.446 410.745,-159.827 420.3,-164.404 421.069,-157.446"/>
</g>
<!-- \\Services_XIO_Http -->
<g id="node3" class="node"><title>\\Services_XIO_Http</title>
<polygon fill="none" stroke="black" points="640.48,-250 512.043,-250 512.043,-214 640.48,-214 640.48,-250"/>
<text text-anchor="middle" x="576.261" y="-228.7" font-family="Courier,monospace" font-size="11.00">Services_XIO_Http</text>
</g>
<!-- \\Services_XIO_HttpProxy -->
<g id="node10" class="node"><title>\\Services_XIO_HttpProxy</title>
<polygon fill="none" stroke="black" points="177.336,-331 15.888,-331 15.888,-295 177.336,-295 177.336,-331"/>
<text text-anchor="middle" x="96.6118" y="-309.7" font-family="Courier,monospace" font-size="11.00">Services_XIO_HttpProxy</text>
</g>
<!-- \\Services_XIO_Base&#45;&gt;\\Services_XIO_HttpProxy -->
<g id="edge3" class="edge"><title>\\Services_XIO_Base&#45;&gt;\\Services_XIO_HttpProxy</title>
<path fill="none" stroke="black" stroke-dasharray="1,5" d="M265.653,-313C241.572,-313 213.641,-313 187.547,-313"/>
<polygon fill="none" stroke="black" points="187.267,-309.5 177.267,-313 187.267,-316.5 187.267,-309.5"/>
</g>
<!-- \\Services_XIO_Stream -->
<g id="node5" class="node"><title>\\Services_XIO_Stream</title>
<polygon fill="none" stroke="black" points="647.182,-142 505.34,-142 505.34,-106 647.182,-106 647.182,-142"/>
<text text-anchor="middle" x="576.261" y="-120.7" font-family="Courier,monospace" font-size="11.00">Services_XIO_Stream</text>
</g>
<!-- \\Services_XIO_Object -->
<g id="node7" class="node"><title>\\Services_XIO_Object</title>
<polygon fill="none" stroke="black" points="400.756,-101 258.914,-101 258.914,-65 400.756,-65 400.756,-101"/>
<text text-anchor="middle" x="329.835" y="-79.7" font-family="Courier,monospace" font-size="11.00">Services_XIO_Object</text>
</g>
<!-- \\Services_XIO_Stream&#45;&gt;\\Services_XIO_Object -->
<g id="edge4" class="edge"><title>\\Services_XIO_Stream&#45;&gt;\\Services_XIO_Object</title>
<path fill="none" stroke="black" d="M505.546,-112.306C476.007,-107.351 441.418,-101.549 410.845,-96.4208"/>
<polygon fill="none" stroke="black" points="411.085,-92.9122 400.644,-94.7096 409.927,-99.8158 411.085,-92.9122"/>
</g>
<!-- \\Services_XIO_Error -->
<g id="node6" class="node"><title>\\Services_XIO_Error</title>
<polygon fill="none" stroke="black" points="643.581,-88 508.942,-88 508.942,-52 643.581,-52 643.581,-88"/>
<text text-anchor="middle" x="576.261" y="-66.7" font-family="Courier,monospace" font-size="11.00">Services_XIO_Error</text>
</g>
<!-- \\Services_XIO_Error&#45;&gt;\\Services_XIO_Object -->
<g id="edge5" class="edge"><title>\\Services_XIO_Error&#45;&gt;\\Services_XIO_Object</title>
<path fill="none" stroke="black" d="M508.794,-73.5351C478.562,-75.143 442.538,-77.059 410.835,-78.7452"/>
<polygon fill="none" stroke="black" points="410.506,-75.2576 400.706,-79.2839 410.878,-82.2477 410.506,-75.2576"/>
</g>
<!-- \\ErrorException -->
<g id="node11" class="node"><title>\\ErrorException</title>
<ellipse fill="none" stroke="black" cx="96.6118" cy="-18" rx="67.1511" ry="18"/>
<text text-anchor="middle" x="96.6118" y="-13.8" font-family="Times,serif" font-size="14.00" fill="gray">\ErrorException</text>
</g>
<!-- \\Services_XIO_Exception&#45;&gt;\\ErrorException -->
<g id="edge6" class="edge"><title>\\Services_XIO_Exception&#45;&gt;\\ErrorException</title>
<path fill="none" stroke="black" d="M288.205,-132.98C275.269,-126.492 261.214,-118.623 249.224,-110 212.989,-83.943 215.945,-62.1941 177.224,-40 172.043,-37.0307 166.442,-34.4453 160.693,-32.1974"/>
<polygon fill="none" stroke="black" points="161.523,-28.7779 150.928,-28.725 159.178,-35.3733 161.523,-28.7779"/>
</g>
<!-- \\Services_XIO_Streams -->
<g id="node9" class="node"><title>\\Services_XIO_Streams</title>
<polygon fill="none" stroke="black" points="650.283,-304 502.24,-304 502.24,-268 650.283,-268 650.283,-304"/>
<text text-anchor="middle" x="576.261" y="-282.7" font-family="Courier,monospace" font-size="11.00">Services_XIO_Streams</text>
</g>
<!-- \\Services_XIO_Streams&#45;&gt;\\Services_XIO_Base -->
<g id="edge7" class="edge"><title>\\Services_XIO_Streams&#45;&gt;\\Services_XIO_Base</title>
<path fill="none" stroke="black" d="M501.925,-294.101C471.099,-297.506 435.305,-301.46 404.449,-304.868"/>
<polygon fill="none" stroke="black" points="403.744,-301.425 394.189,-306.002 404.512,-308.383 403.744,-301.425"/>
</g>
</g>
</svg>
